<svg width="24" height="24" viewBox="0 0 24 24" fill="none" xmlns="http://www.w3.org/2000/svg">
<path d="M22.971 16.4446L17.1863 13.8522C16.9242 13.7399 16.6382 13.6948 16.3543 13.7209C16.0703 13.7469 15.7974 13.8434 15.5601 14.0016C15.5361 14.0171 15.5131 14.0343 15.4916 14.0531L12.4682 16.6246C12.4368 16.6417 12.4019 16.6512 12.3662 16.6525C12.3305 16.6538 12.295 16.6467 12.2625 16.6319C10.3191 15.6939 8.30601 13.693 7.36434 11.7767C7.34866 11.7446 7.34051 11.7094 7.34051 11.6738C7.34051 11.6381 7.34866 11.603 7.36434 11.5709L9.94443 8.5096C9.96294 8.48695 9.98011 8.46324 9.99586 8.43858C10.1519 8.20042 10.2461 7.92715 10.27 7.64346C10.294 7.35976 10.2469 7.07457 10.133 6.81363L7.55904 1.03874C7.41287 0.697842 7.16008 0.413547 6.8386 0.228523C6.51713 0.0434998 6.14432 -0.0322709 5.77613 0.0125833C4.17594 0.222953 2.7071 1.00879 1.6441 2.22323C0.581092 3.43767 -0.00334013 4.99763 1.43605e-05 6.61158C1.43605e-05 16.1997 7.80028 23.9999 17.3884 23.9999C19.0022 24.003 20.562 23.4185 21.7764 22.3555C22.9908 21.2926 23.7767 19.8239 23.9874 18.2238C24.0321 17.8573 23.9574 17.4862 23.7742 17.1656C23.5911 16.8451 23.3094 16.5922 22.971 16.4446ZM17.3884 22.5305C8.61092 22.5305 1.46945 15.389 1.46945 6.61158C1.46536 5.35513 1.91886 4.14016 2.74522 3.19368C3.57159 2.24721 4.71428 1.63397 5.95981 1.46855H5.98797C6.03732 1.46947 6.08523 1.48528 6.12544 1.51391C6.16565 1.54253 6.19627 1.58264 6.21328 1.62896L8.79704 7.39773C8.81178 7.4298 8.81941 7.46468 8.81941 7.49998C8.81941 7.53527 8.81178 7.57015 8.79704 7.60223L6.21206 10.6709C6.19278 10.6928 6.17517 10.7161 6.15941 10.7407C5.99765 10.9876 5.9024 11.2722 5.88288 11.5667C5.86336 11.8613 5.92022 12.1559 6.04797 12.422C7.13413 14.6457 9.37502 16.8695 11.6233 17.9556C11.8909 18.0827 12.187 18.1382 12.4825 18.1167C12.778 18.0953 13.0629 17.9976 13.3094 17.8332C13.3327 17.8173 13.356 17.8001 13.378 17.7818L16.4002 15.2102C16.43 15.1942 16.463 15.1848 16.4968 15.1827C16.5306 15.1806 16.5645 15.1858 16.5961 15.198L22.382 17.7903C22.4293 17.8104 22.469 17.8449 22.4956 17.8889C22.5222 17.9328 22.5343 17.984 22.5302 18.0352C22.3656 19.2813 21.753 20.4249 20.8067 21.2522C19.8604 22.0794 18.6453 22.5339 17.3884 22.5305Z" fill="black"/>
</svg>
