<svg width="96" height="96" viewBox="0 0 96 96" fill="none" xmlns="http://www.w3.org/2000/svg">
<rect width="96" height="96" rx="48" fill="#EAF1FD"/>
<path d="M24 24H29.3333L30.4 29.3333M34.6667 50.6667H61.3333L72 29.3333H30.4M34.6667 50.6667L30.4 29.3333M34.6667 50.6667L28.5523 56.781C26.8724 58.461 28.0622 61.3333 30.4379 61.3333H61.3333M61.3333 61.3333C58.3878 61.3333 56 63.7211 56 66.6667C56 69.6122 58.3878 72 61.3333 72C64.2789 72 66.6667 69.6122 66.6667 66.6667C66.6667 63.7211 64.2789 61.3333 61.3333 61.3333ZM40 66.6667C40 69.6122 37.6122 72 34.6667 72C31.7211 72 29.3333 69.6122 29.3333 66.6667C29.3333 63.7211 31.7211 61.3333 34.6667 61.3333C37.6122 61.3333 40 63.7211 40 66.6667Z" stroke="#7BA2E9" stroke-width="5" stroke-linecap="round" stroke-linejoin="round"/>
</svg>
