<svg width="50" height="50" viewBox="0 0 50 50" fill="none" xmlns="http://www.w3.org/2000/svg">
<g clip-path="url(#clip0_637_2049)">
<path d="M0 0H50V50H0V0Z" fill="#D71A21"/>
<path d="M27.2036 12.3981C26.8882 12.7821 26.7168 13.2561 26.7146 13.7421V17.9621C26.6914 18.2821 26.5622 18.5781 26.3527 18.8321C26.2362 18.9421 25.5483 19.5261 25.489 19.5921L25.8743 19.6041C26.0034 19.4941 27.3307 18.3821 27.4598 18.2281C27.845 17.8321 28.0652 17.3141 28.0652 16.7741V12.7181C28.0546 12.3041 28.2176 11.9041 28.5203 11.6061C28.6833 11.4401 29.1956 11.0341 29.2887 10.9341L28.8802 10.9221C28.8019 11.0221 27.3434 12.2661 27.2036 12.3981ZM23.9268 27.7441L25.5483 29.0781H26.6321C27.6693 29.0781 28.6727 28.6921 29.4073 27.9981C30.072 27.3701 30.3175 26.5221 30.3175 25.7281V23.5361C30.3048 23.0401 30.0847 22.5661 29.6888 22.2361C29.619 22.1701 29.1406 21.7401 29.1406 21.7401V23.4261C29.1406 23.4261 29.6655 23.9321 29.7587 24.0321C30.2371 24.5161 30.2371 25.3981 28.7087 26.7981C28.4399 27.0401 27.682 27.7241 26.6342 27.7241L23.9268 27.7441Z" fill="white"/>
<path d="M28.4399 18.7442C28.2642 18.9202 28.0907 19.3602 28.0907 19.7582V20.5842H28.9776C29.3269 20.5842 29.782 20.2862 29.8752 20.1322V19.3062C30.0064 19.4882 30.1673 19.6482 30.3536 19.7802C30.4467 19.6702 31.2638 18.7442 31.9391 18.7342C33.0695 18.7222 32.8134 20.0782 32.3582 20.5082C32.2058 20.6522 31.5411 21.2242 31.3316 21.4122C30.796 21.8962 29.873 21.6662 29.873 20.4202C29.873 20.4202 28.8929 21.3022 28.7427 21.4222C28.5902 21.5442 28.0907 22.0502 28.0907 22.0502V24.2402C28.0907 25.2862 27.7287 25.6402 27.426 25.9582C27.3095 26.0802 26.0627 27.1582 25.887 27.2802L25.4785 27.2922C25.4785 27.2922 26.213 26.6642 26.3527 26.5202C26.5157 26.3542 26.7147 26.0242 26.7147 25.4742C26.7147 25.3302 26.6914 22.0362 26.6914 22.0362H21.0013C19.02 22.0362 18.5987 19.9662 18.5881 19.4042V17.3222C18.5881 16.9802 18.3553 16.4082 17.9933 16.2322H18.5521C18.622 16.2542 18.9713 16.3862 18.9713 17.6642C18.9713 17.6642 18.948 19.1402 18.948 19.2282C18.948 19.8782 19.4963 20.6162 20.2774 20.6162L26.7126 20.6042C26.7126 20.4382 26.8883 19.8222 27.2016 19.4922C27.3773 19.3042 28.7638 18.1162 28.9162 17.9942H29.3248C29.2655 18.0502 28.5902 18.6102 28.4505 18.7662L28.4399 18.7442ZM30.5504 19.9882C30.7177 20.2022 30.8997 20.4062 31.0987 20.5942C31.7973 21.1222 32.1254 20.5502 31.6576 19.9562C31.4713 19.7122 30.76 19.7782 30.5504 19.9882Z" fill="white"/>
<path d="M23.6474 23.9101C23.6474 24.2081 22.6567 24.9901 22.5974 25.0341C22.5276 24.7141 22.2714 24.3721 21.5369 23.6681L22.6207 22.6441C23.3574 23.3381 23.6474 23.4921 23.6474 23.9101ZM25.5377 12.1341C25.76 12.3441 26.2257 12.8941 25.9463 13.1701C25.7007 13.4021 25.3176 13.7761 25.3176 13.7761C25.2943 13.6441 24.9323 13.3141 24.9323 13.3141V14.4261C24.9196 14.8781 24.746 14.9981 24.746 14.9981C24.746 14.9981 25.6203 15.8121 25.6203 16.8701V17.9501C25.6309 18.1541 25.5504 18.3541 25.398 18.5001C25.3155 18.5881 24.511 19.3601 24.384 19.4581C24.1978 19.6121 23.9649 19.7001 23.7193 19.6901H20.6986C20.2202 19.6901 19.7312 19.3381 19.7312 18.9861C19.7312 18.8981 19.7439 17.9281 19.7439 17.9281C19.8963 18.0941 20.0593 18.2921 20.4319 18.2921C20.7346 18.2921 21.0373 18.0721 21.1199 17.9841C21.2024 17.8961 23.4061 15.7361 23.4061 15.7361C23.4061 15.7361 22.3794 14.8321 21.7041 14.4041C21.3781 14.1941 20.9336 14.4601 20.8637 14.7341C20.6541 15.5941 20.8637 16.8941 20.8637 16.8941L20.036 16.1121C19.6973 15.7921 19.71 15.0761 20.1165 14.7021C20.1757 14.6361 20.7917 13.9961 21.5623 13.9961H22.7625C23.5669 13.9961 24.4539 14.7561 24.4539 14.7561C24.5237 14.6781 24.5703 14.5901 24.583 14.4921C24.583 14.0961 24.5703 13.0501 24.5703 13.0501C23.9649 12.4781 23.8823 11.8821 24.1745 11.6061C24.7227 11.0881 24.9217 10.9121 24.9217 10.9121C24.9217 10.9121 24.8963 11.5381 25.5377 12.1341ZM21.7464 17.8621C21.4437 18.1601 21.3972 18.2261 21.1177 18.3901H24.5216C25.4425 18.3901 25.2562 17.8501 25.0932 17.5741C24.7545 17.0121 23.6834 15.9761 23.6834 15.9761C23.6834 15.9761 21.8057 17.8081 21.7464 17.8621Z" fill="white"/>
<path d="M17.8641 20.792H17.3053C17.3053 20.792 17.9001 21.1 17.9001 21.904V24.47C17.9001 26.134 19.3565 27.676 21.1304 27.676H22.6122C23.4992 27.676 23.8125 27.478 24.3502 27.026C24.5492 26.86 24.8053 26.586 24.8984 26.486C25.2011 26.156 25.5398 25.892 25.5398 25.032V24.194C25.5398 23.466 25.0974 23.17 24.8752 22.96C24.7354 22.828 24.3629 22.486 24.3629 22.486V24.204C24.3629 24.204 24.7354 24.578 24.8984 24.7C25.6669 25.272 25.0614 26.264 24.3396 26.264H21.0818C19.8921 26.286 18.2727 25.284 18.2727 23.586V22.198C18.2833 20.792 17.8641 20.792 17.8641 20.792Z" fill="white"/>
<path d="M21.4331 23.922C21.4331 24.22 20.4424 25.002 20.3832 25.046C20.3133 24.726 20.0572 24.384 19.3226 23.68L20.4065 22.656C21.1304 23.338 21.4331 23.492 21.4331 23.922ZM10.0635 35.322H8.31501C7.76675 35.322 7.81332 34.892 7.75616 34.528V32.17C7.75616 32.17 8.14143 32.158 8.57327 32.158C9.05168 32.158 9.65709 32.092 10.2413 32.4C9.93863 31.794 9.28241 31.418 8.57327 31.442H7.76886V30.682C7.76886 30.682 7.76886 30.02 7.59317 29.834H8.74685C9.73753 29.834 10.5081 29.822 11.3125 30.318C11.3125 30.318 11.1601 29.074 9.23796 29.074H5.48267C5.48267 29.074 6.13466 29.602 6.11137 30.672L6.13466 34.968C6.13466 36.048 6.58978 36.08 6.58978 36.08H10.2858C11.1262 36.08 11.4162 35.518 11.4162 35.21L11.4289 34.802C11.4289 34.804 11.1601 35.322 10.0635 35.322ZM19.9048 34.96V31.952C19.9048 30.784 18.9014 30.476 18.1435 30.476C17.1529 30.476 16.8502 31.258 16.721 31.534C16.4988 30.808 15.7176 30.476 15.0889 30.476C13.8887 30.476 13.5839 31.556 13.5839 31.556C13.5839 31.556 13.5606 30.51 12.5932 30.51H11.649C11.649 30.51 12.1973 30.72 12.1973 31.622V34.96C12.1973 36.062 12.663 36.084 12.663 36.084H14.2253C13.8527 35.82 13.6304 35.4 13.6304 34.95V31.986C13.6537 31.854 13.8866 31.414 14.5513 31.414C14.9365 31.414 15.3557 31.788 15.3451 32.208V34.96C15.3451 36.072 15.8108 36.084 15.8108 36.084H17.373C17.0004 35.808 16.7782 35.4 16.7782 34.95V31.986C16.9306 31.552 17.4259 31.316 17.8853 31.458C18.2346 31.568 18.4801 31.866 18.4907 32.218V34.96C18.5034 36.084 18.9564 36.072 18.9564 36.072H20.5187C20.144 35.812 19.9153 35.4 19.9048 34.96ZM22.6334 34.96C22.6334 35.402 22.8535 35.818 23.2282 36.084H21.666C21.666 36.084 21.1876 36.096 21.1876 34.972V31.612C21.1876 30.73 20.652 30.5 20.652 30.5H21.5961C21.9348 30.5 22.6228 30.5 22.6228 31.744V34.938L22.6334 34.96ZM27.4365 30.928C27.4365 30.928 27.2841 30.532 26.6427 30.532C25.6626 30.532 25.4297 31.634 25.4297 31.634C25.3472 30.764 25.1038 30.51 24.4158 30.51H23.4717C23.4717 30.51 24.0199 30.72 24.0199 31.622V34.96C24.0199 36.062 24.4856 36.084 24.4856 36.084H26.0479C25.6732 35.818 25.453 35.402 25.453 34.96V32.218C25.489 31.986 25.6287 31.778 25.8383 31.656C26.3633 31.326 27.0513 31.424 27.4598 31.876L27.4365 30.928ZM34.7015 31.126C35.0275 31.126 35.343 31.202 35.6224 31.346V30.508H34.3163V29.23C34.0369 29.648 33.6749 30.024 33.2663 30.342C32.8239 30.684 31.8904 31.114 31.8904 31.114L32.8811 31.126V35.004C32.8811 36.084 33.3595 36.084 33.3595 36.084H34.9111C34.5385 35.83 34.3163 35.424 34.3057 34.994V31.128L34.7015 31.126ZM39.4348 32.812C38.5606 33.672 37.8726 33.538 37.3243 34.178C37.3243 34.178 37.4175 35.038 38.1054 35.334C38.3383 35.434 39.3057 35.764 39.9238 34.75V35.654C39.9238 35.654 39.528 36.094 38.2557 36.094C36.7274 36.094 35.6795 34.96 35.6795 33.418C35.6795 31.898 36.5305 30.498 38.152 30.488C39.727 30.464 40.5885 31.676 39.4348 32.812ZM38.478 32.458C38.7341 32.006 38.9437 30.86 38.0589 30.926C37.0322 31.004 37.2312 33.57 37.2312 33.57C37.5699 33.218 38.0822 33.142 38.478 32.458ZM21.9115 30.058C22.3074 30.046 22.6101 29.738 22.6101 29.374C22.5974 29 22.2714 28.712 21.8861 28.712C21.5009 28.724 21.1876 29.02 21.1876 29.384C21.1876 29.76 21.5136 30.056 21.9115 30.058ZM29.058 35.444C28.7087 35.444 28.4526 35.092 28.4526 34.738C28.4526 33.35 29.6529 33.152 29.981 32.788V35.134C29.8286 35.246 29.6867 35.444 29.058 35.444ZM29.9789 32.25C29.6169 32.846 26.7951 32.978 27.2269 35.038C27.4026 35.854 27.9742 36.096 28.696 36.096C29.3967 36.096 29.8264 35.754 30.0021 35.424C30.108 36.04 30.4446 36.084 30.4446 36.084H32.0068C31.6342 35.82 31.4014 35.412 31.4014 34.972V31.832C31.4014 31.082 30.5271 30.5 29.5936 30.5C29.075 30.488 28.5648 30.632 28.1372 30.908V31.878C28.1372 31.878 28.4632 31.106 29.2676 31.106C30.0614 31.106 30.1186 31.48 30.1186 31.668C30.1313 31.864 30.0953 32.074 29.9789 32.25ZM42.8874 34.562C42.9001 34.958 42.5254 35.476 41.7337 35.476C40.9166 35.476 40.5906 34.694 40.5906 34.694V35.686C41.033 35.95 41.5474 36.082 42.0724 36.082C43.133 36.082 44.2168 35.322 44.1935 34.254C44.1829 33.904 44.0559 33.564 43.8315 33.284C43.4695 32.832 42.8176 32.512 42.3032 32.216C42.011 32.05 41.8607 31.742 41.8607 31.644C41.848 31.456 41.9539 31.082 42.735 31.082C43.5055 31.082 43.8421 31.854 43.8421 31.854V30.918C43.4103 30.632 42.8853 30.478 42.3497 30.478C41.4162 30.478 40.5652 31.062 40.5885 31.81C40.6012 32.472 40.8912 32.89 41.4628 33.298C41.7189 33.472 41.9877 33.63 42.2672 33.772C42.7117 34 42.8747 34.288 42.8874 34.562Z" fill="white"/>
</g>
<defs>
<clipPath id="clip0_637_2049">
<rect width="50" height="50" fill="white"/>
</clipPath>
</defs>
</svg>
