<svg width="26" height="24" viewBox="0 0 26 24" fill="none" xmlns="http://www.w3.org/2000/svg">
<path d="M5.63599 0C5.84753 0 6.0504 0.0790176 6.19998 0.21967C6.34956 0.360322 6.43359 0.551088 6.43359 0.75V1.5H19.1953V0.75C19.1953 0.551088 19.2793 0.360322 19.4289 0.21967C19.5785 0.0790176 19.7814 0 19.9929 0C20.2045 0 20.4073 0.0790176 20.5569 0.21967C20.7065 0.360322 20.7905 0.551088 20.7905 0.75V1.5H22.3857C23.2319 1.5 24.0434 1.81607 24.6417 2.37868C25.24 2.94129 25.5762 3.70435 25.5762 4.5V21C25.5762 21.7956 25.24 22.5587 24.6417 23.1213C24.0434 23.6839 23.2319 24 22.3857 24H3.24316C2.39701 24 1.58551 23.6839 0.98719 23.1213C0.388868 22.5587 0.0527344 21.7956 0.0527344 21V4.5C0.0527344 3.70435 0.388868 2.94129 0.98719 2.37868C1.58551 1.81607 2.39701 1.5 3.24316 1.5H4.83838V0.75C4.83838 0.551088 4.92241 0.360322 5.07199 0.21967C5.22157 0.0790176 5.42445 0 5.63599 0ZM1.64795 6V21C1.64795 21.3978 1.81602 21.7794 2.11518 22.0607C2.41434 22.342 2.82009 22.5 3.24316 22.5H22.3857C22.8088 22.5 23.2146 22.342 23.5137 22.0607C23.8129 21.7794 23.981 21.3978 23.981 21V6H1.64795Z" fill="white"/>
</svg>
