<svg width="16" height="17" viewBox="0 0 16 17" fill="none" xmlns="http://www.w3.org/2000/svg">
<path d="M14.2222 2.1H13.3333V0.5H11.5556V2.1H4.44444V0.5H2.66667V2.1H1.77778C0.791111 2.1 0.00888888 2.82 0.00888888 3.7L0 14.9C0 15.3243 0.187301 15.7313 0.520699 16.0314C0.854097 16.3314 1.30628 16.5 1.77778 16.5H14.2222C15.2 16.5 16 15.78 16 14.9V3.7C16 2.82 15.2 2.1 14.2222 2.1ZM14.2222 14.9H1.77778V6.9H14.2222V14.9ZM14.2222 5.3H1.77778V3.7H14.2222V5.3ZM5.33333 10.1H3.55556V8.5H5.33333V10.1ZM8.88889 10.1H7.11111V8.5H8.88889V10.1ZM12.4444 10.1H10.6667V8.5H12.4444V10.1ZM5.33333 13.3H3.55556V11.7H5.33333V13.3ZM8.88889 13.3H7.11111V11.7H8.88889V13.3ZM12.4444 13.3H10.6667V11.7H12.4444V13.3Z" fill="#999999"/>
</svg>
