<svg width="14" height="15" viewBox="0 0 14 15" fill="none" xmlns="http://www.w3.org/2000/svg">
<path d="M12.4444 1.9H11.6667V0.5H10.1111V1.9H3.88889V0.5H2.33333V1.9H1.55556C0.692222 1.9 0.00777777 2.53 0.00777777 3.3L0 13.1C0 13.4713 0.163888 13.8274 0.455612 14.0899C0.747335 14.3525 1.143 14.5 1.55556 14.5H12.4444C13.3 14.5 14 13.87 14 13.1V3.3C14 2.53 13.3 1.9 12.4444 1.9ZM12.4444 13.1H1.55556V6.1H12.4444V13.1ZM12.4444 4.7H1.55556V3.3H12.4444V4.7ZM4.66667 8.9H3.11111V7.5H4.66667V8.9ZM7.77778 8.9H6.22222V7.5H7.77778V8.9ZM10.8889 8.9H9.33333V7.5H10.8889V8.9ZM4.66667 11.7H3.11111V10.3H4.66667V11.7ZM7.77778 11.7H6.22222V10.3H7.77778V11.7ZM10.8889 11.7H9.33333V10.3H10.8889V11.7Z" fill="#999999"/>
</svg>
