<svg width="40" height="40" viewBox="0 0 40 40" fill="none" xmlns="http://www.w3.org/2000/svg">
<path d="M38.0743 26.8918L28.6522 22.6698L28.6262 22.6578C28.1371 22.4485 27.6035 22.3646 27.0737 22.4135C26.544 22.4624 26.0348 22.6426 25.5922 22.9378C25.5401 22.9722 25.49 23.0096 25.4422 23.0498L20.5742 27.1998C17.4901 25.7018 14.3061 22.5418 12.8081 19.4977L16.9641 14.5557C17.0041 14.5057 17.0421 14.4557 17.0781 14.4017C17.367 13.9603 17.5423 13.4543 17.5883 12.9288C17.6344 12.4033 17.5498 11.8746 17.3421 11.3897V11.3657L13.1081 1.92761C12.8336 1.29413 12.3616 0.766431 11.7625 0.423275C11.1634 0.0801196 10.4694 -0.0600833 9.78409 0.0235954C7.07401 0.380211 4.58641 1.71114 2.7859 3.76781C0.985399 5.82448 -0.0048819 8.46624 1.80974e-05 11.1997C1.80974e-05 27.0798 12.9201 39.9999 28.8002 39.9999C31.5337 40.0048 34.1754 39.0145 36.2321 37.214C38.2888 35.4135 39.6197 32.9259 39.9763 30.2158C40.0601 29.5307 39.9202 28.8369 39.5774 28.2379C39.2347 27.6388 38.7074 27.1666 38.0743 26.8918ZM28.8002 36.7999C22.0129 36.7924 15.5057 34.0929 10.7063 29.2935C5.90699 24.4942 3.20745 17.987 3.20004 11.1997C3.19252 9.24664 3.89615 7.35764 5.17953 5.88545C6.46291 4.41326 8.23828 3.45855 10.1741 3.19962C10.1733 3.2076 10.1733 3.21564 10.1741 3.22362L14.3741 12.6237L10.2401 17.5717C10.1981 17.62 10.16 17.6715 10.1261 17.7257C9.82512 18.1876 9.64856 18.7193 9.61352 19.2695C9.57847 19.8196 9.68614 20.3695 9.92609 20.8657C11.7381 24.5718 15.4721 28.2778 19.2182 30.0878C19.7181 30.3255 20.2711 30.4295 20.8233 30.3895C21.3754 30.3495 21.9077 30.167 22.3682 29.8598C22.4195 29.8252 22.4689 29.7878 22.5162 29.7478L27.3782 25.5998L36.7783 29.8098H36.8003C36.5445 31.7483 35.5912 33.5273 34.1188 34.8139C32.6463 36.1004 30.7556 36.8064 28.8002 36.7999Z" fill="#0071BC"/>
</svg>
