<svg width="96" height="96" viewBox="0 0 96 96" fill="none" xmlns="http://www.w3.org/2000/svg">
<rect width="96" height="96" rx="48" fill="#EAF1FD"/>
<path d="M32 66V67.575C32 68.825 31.6222 69.875 30.8667 70.725C30.1111 71.575 29.1556 72 28 72C26.8889 72 25.944 71.562 25.1653 70.686C24.3867 69.81 23.9982 68.748 24 67.5V45L29.6 27C29.8667 26.1 30.344 25.375 31.032 24.825C31.72 24.275 32.4871 24 33.3333 24H62.6667C63.5111 24 64.2782 24.275 64.968 24.825C65.6578 25.375 66.1351 26.1 66.4 27L72 45V67.575C72 68.825 71.6222 69.875 70.8667 70.725C70.1111 71.575 69.1556 72 68 72C66.8889 72 65.9449 71.562 65.168 70.686C64.3911 69.81 64.0018 68.748 64 67.5V66H32ZM31.4667 39H64.5333L61.7333 30H34.2667L31.4667 39ZM36 57C37.1111 57 38.056 56.562 38.8347 55.686C39.6133 54.81 40.0018 53.748 40 52.5C40 51.25 39.6107 50.187 38.832 49.311C38.0533 48.435 37.1093 47.998 36 48C34.8889 48 33.944 48.438 33.1653 49.314C32.3867 50.19 31.9982 51.252 32 52.5C32 53.75 32.3893 54.813 33.168 55.689C33.9467 56.565 34.8907 57.002 36 57ZM60 57C61.1111 57 62.056 56.562 62.8347 55.686C63.6133 54.81 64.0018 53.748 64 52.5C64 51.25 63.6107 50.187 62.832 49.311C62.0533 48.435 61.1093 47.998 60 48C58.8889 48 57.944 48.438 57.1653 49.314C56.3867 50.19 55.9982 51.252 56 52.5C56 53.75 56.3893 54.813 57.168 55.689C57.9467 56.565 58.8907 57.002 60 57Z" fill="#7BA2E9"/>
</svg>
