<svg width="19" height="19" viewBox="0 0 19 19" fill="none" xmlns="http://www.w3.org/2000/svg">
<path fill-rule="evenodd" clip-rule="evenodd" d="M9.5 17.375C10.5342 17.375 11.5582 17.1713 12.5136 16.7756C13.4691 16.3798 14.3372 15.7997 15.0685 15.0685C15.7997 14.3372 16.3798 13.4691 16.7756 12.5136C17.1713 11.5582 17.375 10.5342 17.375 9.5C17.375 8.46584 17.1713 7.44181 16.7756 6.48637C16.3798 5.53093 15.7997 4.6628 15.0685 3.93153C14.3372 3.20027 13.4691 2.6202 12.5136 2.22445C11.5582 1.82869 10.5342 1.625 9.5 1.625C7.41142 1.625 5.40838 2.45468 3.93153 3.93153C2.45468 5.40838 1.625 7.41142 1.625 9.5C1.625 11.5886 2.45468 13.5916 3.93153 15.0685C5.40838 16.5453 7.41142 17.375 9.5 17.375ZM9.5 18.6875C7.06332 18.6875 4.72645 17.7195 3.00346 15.9965C1.28047 14.2736 0.3125 11.9367 0.3125 9.5C0.3125 7.06332 1.28047 4.72645 3.00346 3.00346C4.72645 1.28047 7.06332 0.3125 9.5 0.3125C11.9367 0.3125 14.2736 1.28047 15.9965 3.00346C17.7195 4.72645 18.6875 7.06332 18.6875 9.5C18.6875 11.9367 17.7195 14.2736 15.9965 15.9965C14.2736 17.7195 11.9367 18.6875 9.5 18.6875ZM8.84375 4.25C9.0178 4.25 9.18472 4.31914 9.30779 4.44221C9.43086 4.56528 9.5 4.7322 9.5 4.90625V9.5H14.0938C14.5312 9.5 14.75 9.71875 14.75 10.1562C14.75 10.5938 14.5312 10.8125 14.0938 10.8125H8.84375C8.40625 10.8125 8.1875 10.5938 8.1875 10.1562V4.90625C8.1875 4.7322 8.25664 4.56528 8.37971 4.44221C8.50278 4.31914 8.6697 4.25 8.84375 4.25Z" fill="#999999"/>
</svg>
