<svg width="16" height="17" viewBox="0 0 16 17" fill="none" xmlns="http://www.w3.org/2000/svg">
<path d="M15 8.4996H5.65027M2.35005 8.4996H1M2.35005 8.4996C2.35005 8.03904 2.52386 7.59734 2.83325 7.27167C3.14263 6.946 3.56225 6.76304 3.99978 6.76304C4.43732 6.76304 4.85693 6.946 5.16632 7.27167C5.4757 7.59734 5.64951 8.03904 5.64951 8.4996C5.64951 8.96016 5.4757 9.40186 5.16632 9.72753C4.85693 10.0532 4.43732 10.2362 3.99978 10.2362C3.56225 10.2362 3.14263 10.0532 2.83325 9.72753C2.52386 9.40186 2.35005 8.96016 2.35005 8.4996ZM15 13.7626H10.6502M10.6502 13.7626C10.6502 14.2233 10.4759 14.6655 10.1665 14.9913C9.85702 15.317 9.43731 15.5 8.99968 15.5C8.56214 15.5 8.14253 15.3162 7.83314 14.9906C7.52376 14.6649 7.34995 14.2232 7.34995 13.7626M10.6502 13.7626C10.6502 13.302 10.4759 12.8606 10.1665 12.5348C9.85702 12.2091 9.43731 12.0261 8.99968 12.0261C8.56214 12.0261 8.14253 12.209 7.83314 12.5347C7.52376 12.8604 7.34995 13.3021 7.34995 13.7626M7.34995 13.7626H1M15 3.23656H12.6503M9.35005 3.23656H1M9.35005 3.23656C9.35005 2.77599 9.52386 2.33429 9.83325 2.00863C10.1426 1.68296 10.5622 1.5 10.9998 1.5C11.2164 1.5 11.431 1.54492 11.6311 1.63219C11.8313 1.71946 12.0131 1.84737 12.1663 2.00863C12.3195 2.16988 12.441 2.36132 12.5239 2.57201C12.6068 2.78269 12.6495 3.00851 12.6495 3.23656C12.6495 3.46461 12.6068 3.69042 12.5239 3.90111C12.441 4.1118 12.3195 4.30323 12.1663 4.46449C12.0131 4.62574 11.8313 4.75366 11.6311 4.84093C11.431 4.9282 11.2164 4.97311 10.9998 4.97311C10.5622 4.97311 10.1426 4.79016 9.83325 4.46449C9.52386 4.13882 9.35005 3.69712 9.35005 3.23656Z" stroke="#10294D" stroke-width="1.5" stroke-miterlimit="10" stroke-linecap="round"/>
</svg>
