<svg width="25" height="20" viewBox="0 0 25 20" fill="none" xmlns="http://www.w3.org/2000/svg">
<path d="M24.3008 9C24.3008 8.46957 24.0767 7.96086 23.6778 7.58579C23.2789 7.21071 22.7379 7 22.1738 7H15.4527L16.4736 2.43C16.4949 2.33 16.5055 2.22 16.5055 2.11C16.5055 1.7 16.3247 1.32 16.0376 1.05L14.9103 0L7.91261 6.58C7.51912 6.95 7.28516 7.45 7.28516 8V18C7.28516 18.5304 7.50924 19.0391 7.90813 19.4142C8.30701 19.7893 8.84801 20 9.41211 20H18.9834C19.8661 20 20.6212 19.5 20.9402 18.78L24.1519 11.73C24.2476 11.5 24.3008 11.26 24.3008 11V9ZM0.904297 20H5.1582V8H0.904297V20Z" fill="white"/>
</svg>
