<svg width="40" height="37" viewBox="0 0 40 37" fill="none" xmlns="http://www.w3.org/2000/svg">
<path fill-rule="evenodd" clip-rule="evenodd" d="M33.9998 4.00641V10.5247C34.7877 10.5247 35.568 10.6799 36.296 10.9814C37.0239 11.283 37.6854 11.7249 38.2426 12.2821C38.7997 12.8393 39.2417 13.5007 39.5433 14.2287C39.8448 14.9567 40 15.7369 40 16.5249C40 17.3129 39.8448 18.0931 39.5433 18.8211C39.2417 19.5491 38.7997 20.2106 38.2426 20.7677C37.6854 21.3249 37.0239 21.7669 36.296 22.0684C35.568 22.37 34.7877 22.5252 33.9998 22.5252V28.5254C33.9998 31.8215 30.2376 33.7036 27.5995 31.7255L23.4793 28.6334C21.277 26.982 18.7127 25.8795 15.999 25.4173V31.1055C15.9993 32.413 15.5268 33.6766 14.6688 34.6632C13.8108 35.6499 12.625 36.2931 11.3301 36.4743C10.0352 36.6555 8.71838 36.3626 7.62246 35.6494C6.52654 34.9362 5.72536 33.8509 5.36661 32.5936L2.22649 21.6011C1.09648 20.2666 0.361085 18.6434 0.102975 16.9139C-0.155136 15.1845 0.0742667 13.4173 0.765396 11.811C1.45653 10.2047 2.58198 8.82308 4.01526 7.82135C5.44853 6.81962 7.13281 6.23753 8.87875 6.1405L14.915 5.80448C17.8684 5.64013 20.7405 4.77711 23.2953 3.28638L27.9835 0.550271C30.6516 -1.00379 33.9998 0.918286 33.9998 4.00641ZM7.26669 24.6812L9.21276 31.4955C9.30642 31.8254 9.51626 32.1102 9.80354 32.2974C10.0908 32.4846 10.4361 32.5615 10.7757 32.514C11.1153 32.4664 11.4262 32.2976 11.651 32.0388C11.8758 31.7799 11.9994 31.4484 11.9989 31.1055V25.0853L8.87875 24.9112C8.33578 24.8811 7.79642 24.8042 7.26669 24.6812ZM29.9996 4.00641L25.3094 6.74452C22.46 8.40547 19.2828 9.42519 15.999 9.73264V21.3711C19.5732 21.8631 22.9753 23.2572 25.8794 25.4333L29.9996 28.5254V4.00641ZM11.9989 9.97265L9.09876 10.1327C7.7496 10.2071 6.47739 10.7847 5.53325 11.7514C4.58911 12.718 4.04166 14.0035 3.99896 15.354C3.95626 16.7046 4.42142 18.022 5.30261 19.0464C6.1838 20.0707 7.41699 20.7275 8.75875 20.8871L9.09876 20.9171L11.9989 21.0771V9.97265ZM33.9998 14.5248V18.525C34.5095 18.5244 34.9999 18.3292 35.3705 17.9793C35.7412 17.6293 35.9643 17.151 35.9942 16.6421C36.0241 16.1332 35.8585 15.6321 35.5313 15.2412C35.2041 14.8503 34.74 14.599 34.2338 14.5388L33.9998 14.5248Z" fill="#0071BC"/>
</svg>
