<svg width="96" height="96" viewBox="0 0 96 96" fill="none" xmlns="http://www.w3.org/2000/svg">
<rect width="96" height="96" rx="48" fill="#EAF1FD"/>
<path d="M24 27C24 25.3406 25.3406 24 27 24H69C70.6594 24 72 25.3406 72 27C72 28.6594 70.6594 30 69 30V66C70.6594 66 72 67.3406 72 69C72 70.6594 70.6594 72 69 72H52.5V67.5C52.5 65.0156 50.4844 63 48 63C45.5156 63 43.5 65.0156 43.5 67.5V72H27C25.3406 72 24 70.6594 24 69C24 67.3406 25.3406 66 27 66V30C25.3406 30 24 28.6594 24 27ZM33 34.5V37.5C33 38.325 33.675 39 34.5 39H37.5C38.325 39 39 38.325 39 37.5V34.5C39 33.675 38.325 33 37.5 33H34.5C33.675 33 33 33.675 33 34.5ZM46.5 33C45.675 33 45 33.675 45 34.5V37.5C45 38.325 45.675 39 46.5 39H49.5C50.325 39 51 38.325 51 37.5V34.5C51 33.675 50.325 33 49.5 33H46.5ZM57 34.5V37.5C57 38.325 57.675 39 58.5 39H61.5C62.325 39 63 38.325 63 37.5V34.5C63 33.675 62.325 33 61.5 33H58.5C57.675 33 57 33.675 57 34.5ZM34.5 42C33.675 42 33 42.675 33 43.5V46.5C33 47.325 33.675 48 34.5 48H37.5C38.325 48 39 47.325 39 46.5V43.5C39 42.675 38.325 42 37.5 42H34.5ZM45 43.5V46.5C45 47.325 45.675 48 46.5 48H49.5C50.325 48 51 47.325 51 46.5V43.5C51 42.675 50.325 42 49.5 42H46.5C45.675 42 45 42.675 45 43.5ZM58.5 42C57.675 42 57 42.675 57 43.5V46.5C57 47.325 57.675 48 58.5 48H61.5C62.325 48 63 47.325 63 46.5V43.5C63 42.675 62.325 42 61.5 42H58.5ZM54.75 60C55.9969 60 57.0281 58.9781 56.7188 57.7688C55.725 53.8781 52.2 51 48 51C43.8 51 40.2656 53.8781 39.2812 57.7688C38.9719 58.9688 40.0125 60 41.25 60H54.75Z" fill="#7BA2E9"/>
</svg>
