<svg width="14" height="15" viewBox="0 0 14 15" fill="none" xmlns="http://www.w3.org/2000/svg">
<path d="M7 7.5C8.08297 7.5 9.12158 7.13125 9.88735 6.47487C10.6531 5.8185 11.0833 4.92826 11.0833 4C11.0833 3.07174 10.6531 2.1815 9.88735 1.52513C9.12158 0.868749 8.08297 0.5 7 0.5C5.91703 0.5 4.87842 0.868749 4.11265 1.52513C3.34687 2.1815 2.91667 3.07174 2.91667 4C2.91667 4.92826 3.34687 5.8185 4.11265 6.47487C4.87842 7.13125 5.91703 7.5 7 7.5ZM2.04167 8.5C1.50018 8.5 0.980877 8.68437 0.59799 9.01256C0.215104 9.34075 0 9.78587 0 10.25V10.5C0 11.6965 0.888417 12.7085 2.14958 13.3965C3.41775 14.0885 5.1345 14.5 7 14.5C8.8655 14.5 10.5817 14.0885 11.8504 13.3965C13.1116 12.7085 14 11.6965 14 10.5V10.25C14 9.78587 13.7849 9.34075 13.402 9.01256C13.0191 8.68437 12.4998 8.5 11.9583 8.5H2.04167Z" fill="#999999"/>
</svg>
