<svg width="12" height="15" viewBox="0 0 12 15" fill="none" xmlns="http://www.w3.org/2000/svg">
<path d="M6 7.5C6.92826 7.5 7.8185 7.13125 8.47487 6.47487C9.13125 5.8185 9.5 4.92826 9.5 4C9.5 3.07174 9.13125 2.1815 8.47487 1.52513C7.8185 0.868749 6.92826 0.5 6 0.5C5.07174 0.5 4.1815 0.868749 3.52513 1.52513C2.86875 2.1815 2.5 3.07174 2.5 4C2.5 4.92826 2.86875 5.8185 3.52513 6.47487C4.1815 7.13125 5.07174 7.5 6 7.5ZM1.75 8.5C1.28587 8.5 0.840752 8.68437 0.512563 9.01256C0.184375 9.34075 0 9.78587 0 10.25V10.5C0 11.6965 0.7615 12.7085 1.8425 13.3965C2.9295 14.0885 4.401 14.5 6 14.5C7.599 14.5 9.07 14.0885 10.1575 13.3965C11.2385 12.7085 12 11.6965 12 10.5V10.25C12 9.78587 11.8156 9.34075 11.4874 9.01256C11.1592 8.68437 10.7141 8.5 10.25 8.5H1.75Z" fill="#10294D"/>
</svg>
