<svg width="30" height="24" viewBox="0 0 30 24" fill="none" xmlns="http://www.w3.org/2000/svg">
<path d="M24.9537 9C26.6758 9 29.6719 10.3594 29.6719 12C29.6719 13.6875 26.6758 15 24.9537 15H19.0824L14.0219 23.2453C13.7348 23.7141 13.2011 24 12.622 24H9.79212C9.25836 24 8.87064 23.5219 9.01666 23.0438L11.484 15H6.30762L4.13232 17.7C3.98126 17.8875 3.73956 18 3.48779 18H1.37292C0.980164 18 0.667969 17.7047 0.667969 17.3438C0.667969 17.2828 0.67804 17.2219 0.693146 17.1609L2.2793 12L0.693146 6.83906C0.673004 6.77812 0.667969 6.71719 0.667969 6.65625C0.667969 6.29063 0.985199 6 1.37292 6H3.48779C3.73956 6 3.98126 6.1125 4.13232 6.3L6.30762 9H11.489L9.0217 0.95625C8.87064 0.478125 9.25836 0 9.79212 0H12.622C13.2011 0 13.7348 0.290625 14.0219 0.754688L19.0824 9H24.9537Z" fill="white"/>
</svg>
