<svg width="14" height="15" viewBox="0 0 14 15" fill="none" xmlns="http://www.w3.org/2000/svg">
<path d="M1.08242 8.00469L0 9.08711L3.78848 10.7107L5.41289 14.5L6.49531 13.4176L5.9541 10.7107L8.49022 8.17463L11.2537 14.0721L12.2787 13.0471L11.3678 5.29786L13.5326 3.13225C13.6788 2.99102 13.7955 2.82208 13.8757 2.63529C13.9559 2.4485 13.9982 2.2476 13.9999 2.04431C14.0017 1.84103 13.963 1.63942 13.886 1.45127C13.809 1.26311 13.6953 1.09217 13.5516 0.948423C13.4078 0.804672 13.2369 0.69099 13.0487 0.614009C12.8606 0.537029 12.659 0.498291 12.4557 0.500058C12.2524 0.501824 12.0515 0.544059 11.8647 0.624298C11.6779 0.704537 11.509 0.821172 11.3678 0.9674L9.14549 3.18966L1.39628 2.27794L0.427917 3.24707L6.27944 6.05648L3.78925 8.54667L1.08242 8.00469Z" fill="#999999"/>
</svg>
