<svg width="20" height="20" viewBox="0 0 20 20" fill="none" xmlns="http://www.w3.org/2000/svg">
<path d="M1.54632 10.721L0 12.2673L5.41212 14.5868L7.7327 20L9.27901 18.4537L8.50585 14.5868L12.1289 10.9638L16.0767 19.3887L17.541 17.9244L16.2396 6.85409L19.3323 3.76035C19.5412 3.5586 19.7078 3.31725 19.8224 3.05041C19.9371 2.78357 19.9974 2.49657 19.9999 2.20616C20.0024 1.91575 19.9471 1.62775 19.8371 1.35896C19.7272 1.09016 19.5648 0.845962 19.3594 0.640604C19.154 0.435246 18.9098 0.272843 18.641 0.16287C18.3722 0.0528981 18.0842 -0.002441 17.7938 8.25795e-05C17.5034 0.00260616 17.2164 0.062942 16.9496 0.177569C16.6827 0.292195 16.4414 0.458818 16.2396 0.667714L13.065 3.84237L1.99469 2.53992L0.61131 3.92439L8.97063 7.93783L5.41321 11.4952L1.54632 10.721Z" fill="white"/>
</svg>
