<svg width="12" height="15" viewBox="0 0 12 15" fill="none" xmlns="http://www.w3.org/2000/svg">
<path d="M11.1805 14C11.1805 14.1326 11.1293 14.2598 11.0382 14.3535C10.947 14.4473 10.8234 14.5 10.6944 14.5H4.37498C4.24606 14.5 4.12241 14.4473 4.03125 14.3535C3.94009 14.2598 3.88887 14.1326 3.88887 14C3.88887 13.8674 3.94009 13.7402 4.03125 13.6464C4.12241 13.5526 4.24606 13.5 4.37498 13.5H10.6944C10.8234 13.5 10.947 13.5526 11.0382 13.6464C11.1293 13.7402 11.1805 13.8674 11.1805 14ZM10.2083 8.49979H6.30606L4.37498 4.49965L5.23722 2.85459C5.23981 2.8502 5.24205 2.8456 5.24391 2.84084C5.35912 2.60369 5.37808 2.3292 5.29661 2.07768C5.21514 1.82616 5.03992 1.61821 4.80945 1.49954L4.78089 1.48579L2.73436 0.597635C2.50456 0.484747 2.24088 0.469107 2 0.554076C1.75911 0.639045 1.56025 0.81784 1.44616 1.05203L0.102066 3.80212C0.0349334 3.9412 0 4.09436 0 4.24964C0 4.40491 0.0349334 4.55808 0.102066 4.69715L3.63306 11.9474C3.71349 12.1139 3.83762 12.2539 3.99141 12.3515C4.14519 12.4492 4.32247 12.5006 4.5032 12.4999H10.2083C10.4662 12.4999 10.7135 12.3946 10.8958 12.207C11.0781 12.0195 11.1805 11.7651 11.1805 11.4999V9.49982C11.1805 9.2346 11.0781 8.98024 10.8958 8.79269C10.7135 8.60515 10.4662 8.49979 10.2083 8.49979Z" fill="#10294D"/>
</svg>
