<svg width="19" height="20" viewBox="0 0 19 20" fill="none" xmlns="http://www.w3.org/2000/svg">
<path d="M5.68387 11.3419C5.88616 10.9381 6 10.4824 6 10C6 9.51763 5.88616 9.06185 5.68387 8.65807M5.68387 11.3419C5.19134 12.3251 4.17449 13 3 13C1.34315 13 0 11.6569 0 10C0 8.34315 1.34315 7 3 7C4.17449 7 5.19134 7.67492 5.68387 8.65807M5.68387 11.3419L12.3161 14.6581M5.68387 8.65807L12.3161 5.34193M12.3161 5.34193C12.8087 6.32508 13.8255 7 15 7C16.6569 7 18 5.65685 18 4C18 2.34315 16.6569 1 15 1C13.3431 1 12 2.34315 12 4C12 4.48237 12.1138 4.93815 12.3161 5.34193ZM12.3161 14.6581C12.1138 15.0619 12 15.5176 12 16C12 17.6569 13.3431 19 15 19C16.6569 19 18 17.6569 18 16C18 14.3431 16.6569 13 15 13C13.8255 13 12.8087 13.6749 12.3161 14.6581Z" stroke="#10294D" stroke-width="2" stroke-linecap="round" stroke-linejoin="round"/>
</svg>
