<svg width="40" height="45" viewBox="0 0 40 45" fill="none" xmlns="http://www.w3.org/2000/svg">
<path d="M19.3338 1.8093L18.665 0.424658L19.3317 1.8093H19.3338ZM1.5385 18.4292L3.07084 18.2979C3.03552 17.9039 2.84978 17.5386 2.55218 17.2779C2.25459 17.0172 1.86802 16.8812 1.47277 16.8981C1.07752 16.915 0.70397 17.0835 0.429708 17.3686C0.155447 17.6538 0.00155618 18.0336 0 18.4292H1.5385ZM36.8952 22.1687L35.4469 30.5382L38.4809 31.0633L39.9271 22.6939L36.8952 22.1687ZM22.5544 41.0266H13.0177V44.1036H22.5544V41.0266ZM11.149 39.3096L9.48329 20.0415L6.41655 20.3061L8.08428 39.5743L11.149 39.3096ZM35.4469 30.5382C34.4069 36.5485 28.9873 41.0266 22.5544 41.0266V44.1036C30.4027 44.1036 37.1721 38.6286 38.4809 31.0633L35.4469 30.5382ZM22.5749 7.89765L21.2148 16.1953L24.2508 16.6917L25.6108 8.39612L22.5749 7.89765ZM10.1295 18.4538L13.0813 15.9101L11.071 13.5798L8.12326 16.1235L10.1295 18.4538ZM18.4496 7.63508L19.4261 3.87294L16.4475 3.10164L15.4711 6.86173L18.4496 7.63508ZM20.8989 3.13446L21.1964 3.23087L22.1379 0.301578L21.8405 0.205166L20.8989 3.13446ZM16.9706 11.4177C17.6114 10.2197 18.1079 8.94999 18.4496 7.63508L15.4711 6.86173C15.1907 7.94203 14.783 8.98525 14.2567 9.96949L16.9727 11.4177H16.9706ZM21.1964 3.23087C21.4891 3.31958 21.7546 3.48079 21.9683 3.69955C22.1821 3.91831 22.3371 4.18751 22.419 4.48218L25.3975 3.71089C25.1855 2.91395 24.7756 2.18353 24.2057 1.58748C23.6358 0.991431 22.9245 0.549097 22.1379 0.301578L21.1964 3.23087ZM19.4261 3.87294C19.467 3.72519 19.5395 3.58811 19.6387 3.47121C19.7379 3.35431 19.8613 3.2604 20.0004 3.196L18.665 0.424658C17.5737 0.949798 16.7532 1.92213 16.4475 3.10164L19.4261 3.87294ZM20.0004 3.196C20.2812 3.06191 20.6025 3.0399 20.8989 3.13446L21.8405 0.205166C20.7929 -0.130596 19.6565 -0.0520442 18.665 0.424658L19.9984 3.196H20.0004ZM24.419 19.9677H35.0449V16.8907H24.419V19.9677ZM5.06473 41.3466L3.07084 18.2979L0.00615403 18.5625L1.99594 41.6112L5.06473 41.3466ZM3.07699 41.5661V18.4292H0V41.5661H3.07699ZM1.99594 41.6112C1.98968 41.5367 2.00105 41.4616 2.02535 41.3909C2.04964 41.3201 2.08839 41.2552 2.13912 41.2002C2.18986 41.1452 2.25147 41.1014 2.32005 41.0715C2.38863 41.0416 2.46268 41.0263 2.53749 41.0266V44.1036C4.02676 44.1036 5.19191 42.8277 5.06473 41.3466L1.99799 41.6133L1.99594 41.6112ZM25.6108 8.39612C25.8667 6.83655 25.794 5.24074 25.3975 3.71089L22.419 4.48424C22.7081 5.59877 22.7612 6.7614 22.5749 7.89765L25.6108 8.39612ZM13.0177 41.0266C12.548 41.0258 12.0956 40.8491 11.7497 40.5313C11.4038 40.2135 11.1895 39.7776 11.149 39.3096L8.08428 39.5743C8.19102 40.8095 8.75688 41.9598 9.67018 42.7983C10.5835 43.6368 11.7779 44.1025 13.0177 44.1036V41.0266ZM13.0813 15.9101C14.4762 14.7081 15.9778 13.2783 16.9727 11.4177L14.2567 9.96949C13.547 11.3008 12.4167 12.4229 11.071 13.5798L13.0813 15.9101ZM39.9271 22.6939C40.0506 21.982 40.0169 21.2518 39.8285 20.5543C39.6401 19.8569 39.3015 19.209 38.8364 18.6562C38.3713 18.1033 37.791 17.6588 37.136 17.3539C36.4811 17.0489 35.7674 16.8908 35.0449 16.8907V19.9677C36.208 19.9677 37.0962 21.0179 36.8952 22.1687L39.9271 22.6939ZM2.53749 41.0266C2.83699 41.0266 3.07699 41.2687 3.07699 41.5661H0C0 42.9651 1.13438 44.1036 2.53749 44.1036V41.0266ZM21.2148 16.1953C21.1384 16.6601 21.1639 17.1359 21.2897 17.5898C21.4156 18.0438 21.6386 18.4649 21.9435 18.824C22.2483 19.1831 22.6276 19.4715 23.0551 19.6694C23.4826 19.8672 23.948 19.9677 24.419 19.9677V16.8907C24.394 16.8908 24.3692 16.8874 24.3465 16.8769C24.3238 16.8663 24.3037 16.8509 24.2877 16.8317C24.2716 16.8125 24.26 16.79 24.2536 16.7658C24.2472 16.7416 24.2463 16.7163 24.2508 16.6917L21.2148 16.1953ZM9.48329 20.0415C9.45793 19.7444 9.50142 19.4456 9.61412 19.1696C9.72681 18.8935 9.90344 18.6482 10.1295 18.4538L8.11916 16.1214C7.5243 16.6343 7.05976 17.2812 6.76376 18.0087C6.46775 18.7362 6.34875 19.5236 6.41655 20.3061L9.48329 20.0395V20.0415Z" fill="#0071BC"/>
</svg>
