<svg width="40" height="41" viewBox="0 0 40 41" fill="none" xmlns="http://www.w3.org/2000/svg">
<path d="M20 40.1747C17.2333 40.1747 14.6333 39.647 12.2 38.5918C9.76667 37.5365 7.65 36.1056 5.85 34.2991C4.05 32.4913 2.62533 30.3654 1.576 27.9214C0.526667 25.4774 0.00133333 22.8661 0 20.0873C0 17.3086 0.525333 14.6972 1.576 12.2533C2.62667 9.80931 4.05133 7.6834 5.85 5.87555C7.65 4.06769 9.76667 2.6368 12.2 1.58288C14.6333 0.528967 17.2333 0.00133916 20 0C22.7667 0 25.3667 0.527627 27.8 1.58288C30.2333 2.63814 32.35 4.06902 34.15 5.87555C35.95 7.6834 37.3753 9.80931 38.426 12.2533C39.4767 14.6972 40.0013 17.3086 40 20.0873C40 22.8661 39.4747 25.4774 38.424 27.9214C37.3733 30.3654 35.9487 32.4913 34.15 34.2991C32.35 36.107 30.2333 37.5385 27.8 38.5938C25.3667 39.649 22.7667 40.176 20 40.1747ZM20 36.1572C24.4667 36.1572 28.25 34.6004 31.35 31.4869C34.45 28.3734 36 24.5735 36 20.0873C36 19.853 35.9913 19.6099 35.974 19.3582C35.9567 19.1064 35.9487 18.8975 35.95 18.7314C35.7833 19.7023 35.3333 20.5058 34.6 21.1419C33.8667 21.778 33 22.0961 32 22.0961H28C26.9 22.0961 25.958 21.703 25.174 20.9169C24.39 20.1309 23.9987 19.1847 24 18.0786V16.0699H16V12.0524C16 10.9476 16.392 10.0015 17.176 9.21406C17.96 8.42664 18.9013 8.03359 20 8.03493H22C22 7.26492 22.2087 6.58731 22.626 6.00209C23.0433 5.41688 23.5513 4.93948 24.15 4.56987C23.4833 4.40247 22.8087 4.26856 22.126 4.16812C21.4433 4.06768 20.7347 4.01747 20 4.01747C15.5333 4.01747 11.75 5.57423 8.65 8.68777C5.55 11.8013 4 15.6012 4 20.0873H14C16.2 20.0873 18.0833 20.8741 19.65 22.4476C21.2167 24.0211 22 25.9127 22 28.1223V30.131H16V35.655C16.6667 35.8224 17.3253 35.9483 17.976 36.0327C18.6267 36.117 19.3013 36.1585 20 36.1572Z" fill="#0071BC"/>
</svg>
